<?xml version="1.0" encoding="utf-8"?>
<!-- Generator: Adobe Illustrator 16.0.0, SVG Export Plug-In . SVG Version: 6.00 Build 0)  -->
<!DOCTYPE svg PUBLIC "-//W3C//DTD SVG 1.1//EN" "http://www.w3.org/Graphics/SVG/1.1/DTD/svg11.dtd">
<svg version="1.1" id="Layer_1" xmlns="http://www.w3.org/2000/svg" xmlns:xlink="http://www.w3.org/1999/xlink" x="0px" y="0px"
	 width="70px" height="70px" viewBox="0 0 70 70" enable-background="new 0 0 70 70" xml:space="preserve">
<g>
	<path fill="#FFFFFF" d="M10.947,39.972L23.25,51.689l12.215,11.879H34.47c3.943-4.089,7.976-8.088,11.963-12.132l11.994-12.101
		v1.271L46.435,28.506c-3.989-4.042-8.019-8.044-11.962-12.132h0.991L23.249,28.252L10.947,39.972z M10.804,39.972l24.111-24.146
		l0.053-0.053l0.053,0.053l24.113,24.076l0.071,0.07l-0.071,0.07L35.021,64.119l-0.053,0.054l-0.053-0.054L10.804,39.972z"/>
</g>
<g>
	<path fill="#FFFFFF" d="M34.97,34.899c5.477,0,9.916-4.438,9.916-9.916s-4.439-9.917-9.916-9.917c-5.478,0-9.918,4.439-9.918,9.917
		C25.052,30.459,29.492,34.899,34.97,34.899z M41.601,28.289c-1.223,2.439-3.717,4.131-6.631,4.131s-5.412-1.69-6.631-4.131H41.601z
		 M48.606,44.815H21.333c1.325-4.938,4.216-7.235,7.904-8.206c1.709,0.918,3.66,1.438,5.729,1.438c2.072,0,4.023-0.521,5.73-1.438
		C44.39,37.578,47.28,39.876,48.606,44.815z M51.911,31.854c1.895,0.497,3.377,1.677,4.059,4.212H44.104
		c-0.586-0.306-1.213-0.567-1.875-0.794c0.76-1.989,2.117-2.975,3.799-3.417c0.875,0.471,1.877,0.739,2.939,0.739
		C50.032,32.592,51.034,32.323,51.911,31.854z M52.479,27.315h-6.102c0.154-0.756,0.26-1.531,0.26-2.333
		c0-1.313-0.229-2.57-0.631-3.748c0.844-0.578,1.863-0.919,2.963-0.919c2.898,0,5.25,2.351,5.25,5.25s-2.352,5.25-5.25,5.25
		c-1.26,0-2.4-0.461-3.305-1.2c0.186-0.434,0.348-0.883,0.482-1.34c0.711,0.75,1.703,1.228,2.82,1.228
		C50.513,29.503,51.835,28.607,52.479,27.315z M25.835,36.065H13.969c0.68-2.535,2.164-3.714,4.058-4.211
		c0.877,0.469,1.879,0.739,2.944,0.739c1.063,0,2.063-0.268,2.94-0.739c1.682,0.443,3.039,1.428,3.798,3.417
		C27.047,35.499,26.419,35.76,25.835,36.065z M15.719,25.566c0-2.899,2.351-5.25,5.25-5.25c1.099,0,2.119,0.341,2.963,0.919
		c-0.403,1.178-0.63,2.436-0.63,3.748c0,0.802,0.104,1.577,0.259,2.333h-6.102c0.645,1.291,1.969,2.187,3.51,2.187
		c1.117,0,2.109-0.479,2.821-1.228c0.135,0.459,0.296,0.907,0.483,1.34c-0.905,0.739-2.044,1.2-3.304,1.2
		C18.069,30.815,15.719,28.465,15.719,25.566z"/>
</g>
</svg>
