<?xml version="1.0" encoding="utf-8"?>
<!-- Generator: Adobe Illustrator 16.0.0, SVG Export Plug-In . SVG Version: 6.00 Build 0)  -->
<!DOCTYPE svg PUBLIC "-//W3C//DTD SVG 1.1//EN" "http://www.w3.org/Graphics/SVG/1.1/DTD/svg11.dtd">
<svg version="1.1" id="Layer_1" xmlns="http://www.w3.org/2000/svg" xmlns:xlink="http://www.w3.org/1999/xlink" x="0px" y="0px"
	 width="70px" height="70px" viewBox="0 0 70 70" enable-background="new 0 0 70 70" xml:space="preserve">
<g>
	<path fill="#FFFFFF" d="M11.021,40.011l12.304,11.718l12.215,11.879h-0.995c3.943-4.089,7.976-8.088,11.963-12.132l11.994-12.101
		v1.271L46.51,28.545c-3.989-4.042-8.019-8.044-11.962-12.132h0.991L23.324,28.292L11.021,40.011z M10.878,40.011L34.99,15.865
		l0.053-0.053l0.053,0.053L59.209,39.94l0.071,0.07l-0.071,0.07L35.096,64.158l-0.053,0.054l-0.053-0.054L10.878,40.011z"/>
</g>
<path fill="#FFFFFF" d="M23.424,19.352v-4.561c0-0.63,0.511-1.14,1.141-1.14s1.141,0.51,1.141,1.14v4.561
	c0,0.63-0.511,1.14-1.141,1.14S23.424,19.981,23.424,19.352z"/>
<path fill="#FFFFFF" d="M42.807,20.492c0.631,0,1.14-0.51,1.14-1.14v-4.561c0-0.63-0.509-1.14-1.14-1.14
	c-0.63,0-1.141,0.51-1.141,1.14v4.561C41.666,19.981,42.177,20.492,42.807,20.492z"/>
<rect x="20.279" y="22.726" width="26.813" height="18.333"/>
<circle fill="#FFFFFF" stroke="#FFFFFF" stroke-miterlimit="10" cx="46.228" cy="41.015" r="9.121"/>
<path d="M53.068,41.015c0-3.772-3.068-6.841-6.841-6.841s-6.841,3.069-6.841,6.841c0,3.771,3.068,6.841,6.841,6.841
	S53.068,44.787,53.068,41.015z"/>
<rect x="23.424" y="27.333" fill="#FFFFFF" width="4.561" height="4.561"/>
<rect x="23.424" y="34.173" fill="#FFFFFF" width="4.561" height="4.561"/>
<rect x="30.266" y="27.333" fill="#FFFFFF" width="4.561" height="4.561"/>
<rect x="30.266" y="34.173" fill="#FFFFFF" width="4.561" height="4.561"/>
<path fill="#FFFFFF" d="M21.144,40.788V25.053h25.084v4.56h2.28v-8.894c0-1.385-1.105-2.508-2.47-2.508h-0.951v1.141
	c0,1.256-1.021,2.28-2.28,2.28c-1.258,0-2.279-1.024-2.279-2.28v-1.141H26.845v1.141c0,1.256-1.022,2.28-2.28,2.28
	s-2.28-1.024-2.28-2.28v-1.141h-0.949c-1.365,0-2.472,1.123-2.472,2.508v20.069c0,1.38,1.106,2.508,2.472,2.508h13.491v-2.281
	H21.335C21.23,41.015,21.144,40.907,21.144,40.788z"/>
<rect x="37.106" y="27.333" fill="#FFFFFF" width="4.56" height="4.561"/>
<path fill="#FFFFFF" d="M49.647,41.015h-3.42v-3.42c0-0.631-0.51-1.141-1.141-1.141c-0.63,0-1.141,0.51-1.141,1.141v4.561
	c0,0.629,0.511,1.141,1.141,1.141h4.561c0.631,0,1.141-0.512,1.141-1.141C50.788,41.524,50.278,41.015,49.647,41.015z"/>
</svg>
