<?xml version="1.0" encoding="utf-8"?>
<!-- Generator: Adobe Illustrator 16.0.0, SVG Export Plug-In . SVG Version: 6.00 Build 0)  -->
<!DOCTYPE svg PUBLIC "-//W3C//DTD SVG 1.1//EN" "http://www.w3.org/Graphics/SVG/1.1/DTD/svg11.dtd">
<svg version="1.1" id="Layer_1" xmlns="http://www.w3.org/2000/svg" xmlns:xlink="http://www.w3.org/1999/xlink" x="0px" y="0px"
	 width="70px" height="70px" viewBox="0 0 70 70" enable-background="new 0 0 70 70" xml:space="preserve">
<g>
	<path fill="#FFFFFF" d="M11.021,39.987l12.304,11.718l12.215,11.879h-0.995c3.943-4.089,7.976-8.088,11.963-12.132l11.994-12.101
		v1.271L46.51,28.522c-3.989-4.042-8.019-8.044-11.962-12.132h0.991L23.324,28.269L11.021,39.987z M10.878,39.987L34.99,15.841
		l0.053-0.053l0.053,0.053l24.113,24.076l0.071,0.07l-0.071,0.07L35.096,64.135l-0.053,0.054l-0.053-0.054L10.878,39.987z"/>
</g>
<path fill="#FFFFFF" d="M3.098,7.304l1.734,1.349L4.061,9.424l0.771,0.771l0.771-0.578l0.771,0.771L5.603,11.16l0.771,0.771
	l0.771-0.771l1.542,1.542c0.386,0.386,0.964,0.386,1.35,0l6.514,6.513c-2.793,4.042-2.897,9.054,0.04,11.993
	c0.964,0.771,1.929,1.349,3.085,1.734c2.313,0.579,3.855,2.699,3.855,5.205c0,2.699,0.963,5.206,2.698,6.94
	c1.929,1.734,4.435,2.698,7.133,2.698c3.663,0,7.711-1.734,10.987-5.012c5.591-5.398,6.555-13.494,2.121-17.927
	c-1.928-1.735-4.24-2.699-6.939-2.699c-2.313,0-4.435-1.542-5.205-3.855c-0.193-1.157-0.964-2.313-1.734-3.084
	c-1.542-1.349-3.471-2.121-5.591-2.121c-2.075,0-4.348,0.699-6.393,2.09l-6.522-6.523c0.386-0.386,0.386-0.964,0-1.35l-1.541-1.542
	l0.77-0.771l-0.77-0.771l-0.965,0.771L10.808,4.22l0.771-0.771l-0.578-0.964l-0.771,0.771L8.688,1.714
	c-0.386-0.193-0.964-0.193-1.351,0l-4.24,4.241C2.712,6.34,2.712,6.918,3.098,7.304z"/>
<path d="M18.674,21.338l5.494,5.493c-0.034,0.234-0.059,0.47-0.059,0.713c0,2.662,2.157,4.819,4.819,4.819
	c2.66,0,4.818-2.157,4.818-4.819c0-2.662-2.158-4.819-4.819-4.819c-0.243,0-0.479,0.024-0.713,0.059l-5.511-5.511
	c1.367-0.83,2.832-1.294,4.296-1.294c0.964,0,2.313,0.193,3.47,1.35c0.579,0.578,0.965,1.156,1.157,1.928
	c1.156,3.47,4.241,5.976,8.097,5.976c1.35,0,3.277,0.386,4.818,1.927c3.277,3.277,2.313,9.446-2.12,13.88
	c-2.507,2.506-5.783,4.048-8.868,4.048c-1.35,0-3.47-0.386-5.012-1.928c-1.541-1.542-1.928-3.47-1.928-4.819
	c-0.191-3.855-2.506-7.132-5.975-8.096c-0.771-0.386-1.351-0.58-1.928-1.157C16.901,27.278,16.987,24.174,18.674,21.338z"/>
<rect x="6.692" y="5.892" transform="matrix(0.7071 0.7071 -0.7071 0.7071 7.3508 -4.871)" fill="#010101" width="5.725" height="1.09"/>
<rect x="7.275" y="5.309" transform="matrix(-0.7069 0.7073 -0.7073 -0.7069 19.1274 8.4164)" fill="#010101" width="1.09" height="5.726"/>
<rect x="32.35" y="33.884" transform="matrix(0.707 -0.7072 0.7072 0.707 -14.1281 36.1691)" fill="#FFFFFF" width="8.482" height="2.506"/>
</svg>
